<svg width="35" height="36" viewBox="0 0 35 36" fill="none" xmlns="http://www.w3.org/2000/svg">
<path d="M10.1593 0.151855C4.5643 0.151855 0 4.7734 0 10.4385V25.3041C0 30.9693 4.5643 35.5908 10.1593 35.5908H24.8407C30.4357 35.5908 35 30.9693 35 25.3041V10.4385C35 4.7734 30.4357 0.151855 24.8407 0.151855H10.1593ZM10.1593 2.87793H24.8407C28.9791 2.87793 32.3077 6.24293 32.3077 10.4385V25.3041C32.3077 29.4944 28.9844 32.8647 24.8407 32.8647H10.1593C6.02088 32.8647 2.69231 29.4997 2.69231 25.3041V10.4385C2.69231 6.24825 6.01562 2.87793 10.1593 2.87793ZM27.5962 5.604C26.4814 5.604 25.5769 6.51979 25.5769 7.64856C25.5769 8.77732 26.4814 9.69312 27.5962 9.69312C28.7109 9.69312 29.6154 8.77732 29.6154 7.64856C29.6154 6.51979 28.7109 5.604 27.5962 5.604ZM17.5 8.33008C12.3099 8.33008 8.07692 12.6162 8.07692 17.8713C8.07692 23.1265 12.3099 27.4126 17.5 27.4126C22.6901 27.4126 26.9231 23.1265 26.9231 17.8713C26.9231 12.6162 22.6901 8.33008 17.5 8.33008ZM17.5 11.0562C21.2335 11.0562 24.2308 14.091 24.2308 17.8713C24.2308 21.6516 21.2335 24.6865 17.5 24.6865C13.7665 24.6865 10.7692 21.6516 10.7692 17.8713C10.7692 14.091 13.7665 11.0562 17.5 11.0562Z" fill="#533100"/>
</svg>
