<svg width="35" height="37" viewBox="0 0 35 37" fill="none" xmlns="http://www.w3.org/2000/svg">
<path d="M17.5 0.841797C7.85076 0.841797 0 8.79112 0 18.5615C0 21.4634 0.754869 24.1758 1.979 26.5942L0.0820312 33.471C-0.359802 35.0688 1.20044 36.6485 2.77881 36.2016L9.57544 34.2809C11.9619 35.5178 14.6368 36.2812 17.5 36.2812C27.1492 36.2812 35 28.3319 35 18.5615C35 8.79112 27.1492 0.841797 17.5 0.841797ZM17.5 3.49976C25.7305 3.49976 32.375 10.2277 32.375 18.5615C32.375 26.8954 25.7305 33.6233 17.5 33.6233C14.8736 33.6233 12.4168 32.9318 10.2744 31.7233C9.97243 31.5528 9.61624 31.5099 9.2832 31.6039L2.81982 33.4295L4.62451 26.8884C4.71774 26.5507 4.67536 26.1893 4.50659 25.883C3.3107 23.7122 2.625 21.2235 2.625 18.5615C2.625 10.2277 9.2695 3.49976 17.5 3.49976ZM11.5852 10.5894C11.3061 10.5894 10.8551 10.6954 10.4709 11.1189C10.0877 11.5406 9.00806 12.5635 9.00806 14.6455C9.00806 16.7276 10.5045 18.7383 10.7136 19.0218C10.9219 19.3027 13.6039 23.7131 17.8521 25.4089C21.3818 26.8176 22.0997 26.5371 22.8662 26.4662C23.6327 26.3971 25.3395 25.4442 25.6877 24.4554C26.036 23.4666 26.0362 22.6209 25.9338 22.4464C25.8297 22.2701 25.5506 22.1632 25.1323 21.9515C24.7149 21.7397 22.6616 20.7166 22.2783 20.5758C21.8951 20.4349 21.6149 20.3634 21.3367 20.7869C21.0584 21.2104 20.258 22.1629 20.0139 22.4446C19.7698 22.7282 19.5264 22.7637 19.1082 22.5519C18.689 22.3384 17.3443 21.8927 15.7466 20.4512C14.5041 19.3304 13.6682 17.945 13.4241 17.5215C13.1808 17.0998 13.3978 16.868 13.6069 16.658C13.7951 16.4684 14.025 16.1646 14.2341 15.9174C14.4415 15.6702 14.5103 15.4949 14.6494 15.2131C14.7885 14.9323 14.7194 14.6842 14.6152 14.4725C14.5111 14.2607 13.6985 12.1673 13.3267 11.33C13.0143 10.6265 12.6851 10.6113 12.3867 10.5998C12.1435 10.59 11.8635 10.5894 11.5852 10.5894Z" fill="#533100"/>
</svg>
