<svg width="79" height="36" viewBox="0 0 79 36" fill="none" xmlns="http://www.w3.org/2000/svg">
<path d="M11.5178 18.285C11.4258 16.974 10.7818 15.755 9.7238 14.996C8.68881 14.214 7.67681 13.984 6.77981 13.777C5.85981 13.547 5.0548 13.363 4.3648 12.65C3.6748 11.937 3.3068 11.155 3.3528 10.373C3.3758 9.66 3.6978 9.016 4.2958 8.464C5.6528 7.314 7.83781 7.337 9.1948 8.533C9.5628 8.855 9.81581 9.246 9.97681 9.66L11.0348 9.499C10.8278 8.855 10.4368 8.234 9.8848 7.751C9.0338 6.992 7.90681 6.578 6.7108 6.578C5.56081 6.578 4.5028 6.9 3.5368 7.728C2.7548 8.464 2.3408 9.361 2.2948 10.327C2.2488 11.408 2.7318 12.489 3.6058 13.386C4.5258 14.329 5.56081 14.559 6.5498 14.789C7.3778 14.996 8.22881 15.18 9.10281 15.824C9.93081 16.422 10.4138 17.319 10.4598 18.354C10.5288 19.412 10.1148 20.447 9.33281 21.229C7.95281 22.448 5.72181 22.471 4.2958 21.298C3.6978 20.792 3.3068 20.125 3.2148 19.412L2.1798 19.573C2.3178 20.539 2.8238 21.436 3.6058 22.103C4.4798 22.816 5.5838 23.207 6.77981 23.207H6.89481C8.06781 23.184 9.1488 22.77 9.97681 22.057L10.1148 21.919C11.0808 20.953 11.5868 19.642 11.5178 18.285ZM21.686 23.253C21.64 23.253 21.571 23.253 21.525 23.253H21.387C19.317 23.184 17.408 22.31 15.959 20.792C14.418 19.205 13.59 17.112 13.59 14.858C13.59 12.627 14.418 10.534 15.959 8.947C17.408 7.429 19.317 6.555 21.387 6.486H21.686C23.733 6.555 25.642 7.429 27.114 8.947C28.632 10.534 29.46 12.627 29.46 14.858C29.46 17.112 28.632 19.205 27.114 20.792C25.642 22.31 23.733 23.184 21.686 23.253ZM21.525 7.521C17.707 7.613 14.648 10.879 14.648 14.858C14.648 18.86 17.707 22.126 21.525 22.218C25.343 22.126 28.425 18.86 28.425 14.858C28.425 10.879 25.343 7.613 21.525 7.521ZM43.3069 6.877V23H42.5479L32.7959 9.062V23H31.7609V6.9H32.5659L42.2489 20.769V6.877H43.3069ZM58.9715 14.904C58.9715 12.765 58.1435 10.718 56.6255 9.2C55.0845 7.682 53.0605 6.831 50.9215 6.831H46.0685V22.977H50.9215C53.0605 22.977 55.0845 22.149 56.6255 20.631C58.1435 19.09 58.9715 17.066 58.9715 14.904ZM50.8985 21.942H47.1265V7.866H50.8985V7.889C54.7855 7.889 57.9365 11.04 57.9365 14.904C57.9365 18.791 54.7855 21.942 50.8985 21.942ZM65.9133 6.831L59.6573 23H60.7843L62.0033 19.826C62.8083 20.148 64.2343 20.539 66.3273 20.539C68.3973 20.539 69.8003 20.171 70.6283 19.849L71.8703 23H72.9973L66.6263 6.831H65.9133ZM66.3273 19.504C64.7173 19.504 63.5673 19.251 62.8773 19.021C62.6933 18.975 62.5323 18.906 62.3943 18.86L66.2813 8.809L70.2373 18.883C69.5473 19.159 68.2593 19.504 66.3273 19.504ZM75.5426 23H76.6006V6.831H75.5426V23Z" fill="#533100"/>
<path d="M11.3156 34.976C11.4476 34.976 11.5556 34.868 11.5556 34.736V26.132C11.5556 26 11.4476 25.892 11.3156 25.892C11.1836 25.892 11.0756 26 11.0756 26.132V33.956L5.67561 25.988C5.63961 25.94 5.54361 25.892 5.47161 25.892C5.33961 25.892 5.23161 26 5.23161 26.132V34.736C5.23161 34.868 5.33961 34.976 5.47161 34.976C5.60361 34.976 5.71161 34.868 5.71161 34.736V26.912L11.1236 34.88C11.1596 34.94 11.2436 34.976 11.3156 34.976ZM19.7781 34.652L16.3821 26.024C16.3461 25.94 16.2501 25.868 16.1541 25.868C16.0701 25.868 15.9741 25.94 15.9381 26.024L12.5421 34.652C12.5301 34.676 12.5181 34.724 12.5181 34.748C12.5181 34.88 12.6261 34.988 12.7581 34.988C12.8541 34.988 12.9501 34.916 12.9861 34.832L16.1541 26.768L17.7741 30.872H16.2381C16.1061 30.872 15.9981 30.98 15.9981 31.112C15.9981 31.244 16.1061 31.352 16.2381 31.352H17.9661L19.3341 34.832C19.3701 34.916 19.4661 34.976 19.5621 34.976C19.6941 34.976 19.8021 34.868 19.8021 34.736C19.8021 34.712 19.7901 34.676 19.7781 34.652ZM29.4314 34.988H29.4434C30.0194 34.988 30.9194 34.772 31.4474 34.52C31.9514 34.268 32.6474 33.704 32.9954 33.26C33.0194 33.224 33.0434 33.164 33.0434 33.116C33.0434 32.984 32.9354 32.876 32.8034 32.876C32.7434 32.876 32.6594 32.912 32.6234 32.972C31.8434 33.944 30.6794 34.508 29.4314 34.508C27.1874 34.508 25.3634 32.672 25.3634 30.428C25.3634 28.184 27.1874 26.36 29.4314 26.36C30.6794 26.36 31.8434 26.924 32.6234 27.908C32.6594 27.956 32.7434 27.992 32.8034 27.992C32.9354 27.992 33.0434 27.884 33.0434 27.752C33.0434 27.704 33.0194 27.644 32.9954 27.608C32.6474 27.164 31.9514 26.6 31.4474 26.348C30.9194 26.096 30.0194 25.88 29.4314 25.88C28.9274 25.88 28.1234 26.048 27.6554 26.24C26.1314 26.888 24.8834 28.772 24.8834 30.428C24.8834 32.948 26.9234 34.988 29.4314 34.988ZM38.6761 34.94C39.1801 34.94 39.9601 34.784 40.4281 34.58C41.9401 33.944 43.1761 32.084 43.1761 30.44C43.1761 27.944 41.1601 25.928 38.6761 25.928C38.1721 25.928 37.3801 26.084 36.9121 26.288C35.4001 26.924 34.1641 28.784 34.1641 30.428C34.1641 32.924 36.1801 34.94 38.6761 34.94ZM38.6761 26.408C40.8961 26.408 42.6961 28.208 42.6961 30.428C42.6961 32.648 40.8961 34.46 38.6761 34.46C36.4561 34.46 34.6441 32.648 34.6441 30.428C34.6441 28.208 36.4561 26.408 38.6761 26.408ZM50.1189 34.952C50.2509 34.952 50.3589 34.844 50.3589 34.712C50.3589 34.58 50.2509 34.472 50.1189 34.472H44.6589L50.3229 26.3C50.3469 26.264 50.3589 26.204 50.3589 26.156C50.3589 26.024 50.2509 25.928 50.1189 25.916H44.2029C44.0709 25.916 43.9629 26.024 43.9629 26.156C43.9629 26.3 44.0709 26.396 44.2029 26.396H49.6629L44.0109 34.568C43.9869 34.604 43.9629 34.664 43.9629 34.712C43.9629 34.844 44.0709 34.952 44.2029 34.952H50.1189ZM51.9948 35.036C52.1268 35.036 52.2348 34.928 52.2348 34.796V26.144C52.2348 26.012 52.1268 25.904 51.9948 25.904C51.8628 25.904 51.7548 26.012 51.7548 26.144V34.796C51.7548 34.928 51.8628 35.036 51.9948 35.036ZM59.714 34.976C59.846 34.976 59.954 34.868 59.954 34.736V26.132C59.954 26 59.846 25.892 59.714 25.892C59.582 25.892 59.474 26 59.474 26.132V33.956L54.074 25.988C54.038 25.94 53.942 25.892 53.87 25.892C53.738 25.892 53.63 26 53.63 26.132V34.736C53.63 34.868 53.738 34.976 53.87 34.976C54.002 34.976 54.11 34.868 54.11 34.736V26.912L59.522 34.88C59.558 34.94 59.642 34.976 59.714 34.976ZM67.0246 25.856C66.8926 25.856 66.7846 25.964 66.7846 26.096V31.604H61.4926V26.108C61.4926 25.976 61.3846 25.868 61.2526 25.868C61.1206 25.868 61.0126 25.976 61.0126 26.108V34.76C61.0126 34.892 61.1206 35 61.2526 35C61.3846 35 61.4926 34.892 61.4926 34.76V32.084H66.7846V34.76C66.7846 34.892 66.8926 35 67.0246 35C67.1566 35 67.2646 34.892 67.2646 34.76V26.096C67.2646 25.964 67.1566 25.856 67.0246 25.856ZM75.7586 34.652L72.3626 26.024C72.3266 25.94 72.2306 25.868 72.1346 25.868C72.0506 25.868 71.9546 25.94 71.9186 26.024L68.5226 34.652C68.5106 34.676 68.4986 34.724 68.4986 34.748C68.4986 34.88 68.6066 34.988 68.7386 34.988C68.8346 34.988 68.9306 34.916 68.9666 34.832L72.1346 26.768L73.7546 30.872H72.2186C72.0866 30.872 71.9786 30.98 71.9786 31.112C71.9786 31.244 72.0866 31.352 72.2186 31.352H73.9466L75.3146 34.832C75.3506 34.916 75.4466 34.976 75.5426 34.976C75.6746 34.976 75.7826 34.868 75.7826 34.736C75.7826 34.712 75.7706 34.676 75.7586 34.652Z" fill="#533100"/>
</svg>
