<svg width="125" height="47" viewBox="0 0 125 47" fill="none" xmlns="http://www.w3.org/2000/svg">
<path d="M46.4758 23.4748C46.4758 36.4396 36.0718 46.9497 23.2379 46.9497C10.404 46.9497 0 36.4396 0 23.4748C0 10.51 10.404 0 23.2379 0C36.0718 0 46.4758 10.51 46.4758 23.4748Z" fill="#6F8C04"/>
<path d="M8.12819 9.47037C8.24461 9.54461 8.39916 9.51041 8.4734 9.394C8.54763 9.27758 8.51343 9.12303 8.39702 9.04879L8.12819 9.47037ZM6.56876 8.19368L6.70009 7.98095L6.56876 8.19368ZM6.20637 7.71919C6.08311 7.65699 5.93276 7.70649 5.87056 7.82976C5.80835 7.95303 5.85786 8.10338 5.98113 8.16558L6.20637 7.71919ZM8.2626 9.25958C8.39702 9.04879 8.39701 9.04879 8.397 9.04878C8.397 9.04878 8.39698 9.04877 8.39697 9.04876C8.39694 9.04874 8.39689 9.04871 8.39683 9.04867C8.3967 9.04859 8.39652 9.04847 8.39628 9.04832C8.39579 9.04801 8.39507 9.04755 8.39411 9.04694C8.3922 9.04572 8.38935 9.0439 8.38562 9.04152C8.37814 9.03676 8.3671 9.02973 8.3528 9.02062C8.3242 9.00241 8.28258 8.97593 8.23046 8.94281C8.12623 8.87656 7.97995 8.78373 7.81178 8.67738C7.47561 8.46479 7.05123 8.19774 6.70009 7.98095L6.43743 8.4064C6.78622 8.62174 7.20877 8.88764 7.54454 9.09997C7.71233 9.20608 7.85828 9.29871 7.96228 9.3648C8.01427 9.39784 8.05577 9.42425 8.08426 9.44239C8.09851 9.45146 8.1095 9.45846 8.11693 9.46319C8.12064 9.46556 8.12346 9.46736 8.12535 9.46856C8.1263 9.46917 8.12701 9.46962 8.12748 9.46992C8.12772 9.47007 8.1279 9.47019 8.12802 9.47026C8.12808 9.4703 8.12812 9.47033 8.12815 9.47035C8.12816 9.47036 8.12817 9.47036 8.12818 9.47037C8.12819 9.47037 8.12819 9.47037 8.2626 9.25958ZM6.70009 7.98095C6.51349 7.86575 6.39666 7.8152 6.20637 7.71919L5.98113 8.16558C6.19131 8.27163 6.27502 8.30614 6.43743 8.4064L6.70009 7.98095Z" fill="#EDD49E"/>
<path d="M12.0599 16.7515C12.0599 16.7515 12.0041 13.2486 12.6181 9.70342C13.2321 6.15822 15.981 2.89551 15.981 2.89551C15.981 2.89551 18.116 8.05088 17.9346 13.2486C17.7532 18.4464 15.2973 21.7797 15.2973 21.7797" stroke="#EDD49E" stroke-width="0.5" stroke-linecap="round" stroke-linejoin="round"/>
<path d="M27.505 32.9174C27.505 32.9174 28.4606 27.881 28.2888 25.626C28.117 23.371 27.1797 21.0521 25.6261 19.1586C24.0726 17.2651 22.0466 12.7812 22.0466 12.7812C22.0466 12.7812 21.9347 14.6465 21.6827 17.1618C21.4306 19.677 20.7812 20.3412 20.619 22.6162C20.4567 24.8912 21.6241 28.6659 21.6241 28.6659" stroke="#EDD49E" stroke-width="0.5" stroke-linecap="round" stroke-linejoin="round"/>
<path d="M39.6085 39.8555C32.1091 35.5663 24.6634 32.1794 18.5098 25.8165C12.5566 19.6609 8.5797 10.0199 7.29492 6.67773" stroke="#EDD49E" stroke-width="0.5" stroke-linecap="round" stroke-linejoin="round"/>
<path d="M34.8609 37.1421C34.8609 37.1421 33.133 33.3639 32.5054 30.7935C31.675 27.3922 31.7343 21.8574 31.7343 21.8574C35.1865 25.4338 41.4644 29.528 43.8171 33.96" stroke="#EDD49E" stroke-width="0.5" stroke-linecap="round" stroke-linejoin="round"/>
<path d="M26.2626 32.4374C26.4001 32.4498 26.5217 32.3485 26.5342 32.211C26.5467 32.0735 26.4454 31.9519 26.3079 31.9394L26.2626 32.4374ZM12.447 39.1383C12.3682 39.2517 12.3964 39.4075 12.5098 39.4862C12.6232 39.565 12.779 39.5368 12.8577 39.4234L12.447 39.1383ZM26.2852 32.1884C26.3079 31.9394 26.3078 31.9394 26.3077 31.9394C26.3076 31.9394 26.3075 31.9394 26.3074 31.9394C26.3071 31.9393 26.3068 31.9393 26.3064 31.9393C26.3056 31.9392 26.3046 31.9391 26.3032 31.939C26.3005 31.9388 26.2966 31.9384 26.2916 31.938C26.2816 31.9372 26.267 31.9361 26.2481 31.9347C26.2104 31.932 26.1552 31.9285 26.0841 31.9249C25.9419 31.9178 25.736 31.9106 25.4782 31.9102C24.9628 31.9093 24.2387 31.9353 23.401 32.0426C21.7293 32.2569 19.5864 32.7979 17.7501 34.1144L18.0414 34.5207C19.7847 33.2709 21.8365 32.7473 23.4646 32.5386C24.2769 32.4345 24.979 32.4093 25.4773 32.4102C25.7264 32.4106 25.9242 32.4175 26.0591 32.4243C26.1265 32.4277 26.1781 32.431 26.2126 32.4335C26.2298 32.4347 26.2427 32.4357 26.2511 32.4364C26.2553 32.4367 26.2584 32.437 26.2603 32.4371C26.2613 32.4372 26.2619 32.4373 26.2623 32.4373C26.2625 32.4373 26.2626 32.4374 26.2627 32.4374C26.2627 32.4374 26.2627 32.4374 26.2627 32.4374C26.2627 32.4374 26.2626 32.4374 26.2852 32.1884ZM17.7501 34.1144C15.9454 35.4082 14.6224 36.6602 13.7494 37.5905C13.3129 38.0556 12.9888 38.4404 12.7731 38.71C12.6652 38.8448 12.5844 38.9508 12.5302 39.0236C12.5032 39.06 12.4827 39.0882 12.4689 39.1075C12.4619 39.1171 12.4566 39.1245 12.453 39.1297C12.4512 39.1323 12.4498 39.1343 12.4488 39.1357C12.4483 39.1365 12.4479 39.137 12.4476 39.1375C12.4474 39.1377 12.4473 39.1378 12.4472 39.138C12.4471 39.1381 12.4471 39.1381 12.4471 39.1382C12.447 39.1382 12.447 39.1383 12.6523 39.2809C12.8577 39.4234 12.8577 39.4235 12.8577 39.4235C12.8577 39.4235 12.8576 39.4235 12.8576 39.4235C12.8577 39.4235 12.8577 39.4235 12.8577 39.4234C12.8578 39.4232 12.8581 39.4229 12.8584 39.4225C12.859 39.4216 12.86 39.4201 12.8615 39.4181C12.8643 39.414 12.8688 39.4077 12.875 39.3992C12.8872 39.3821 12.906 39.3562 12.9314 39.3221C12.9822 39.2538 13.0594 39.1525 13.1635 39.0224C13.3716 38.7623 13.6871 38.3875 14.114 37.9326C14.9679 37.0228 16.2667 35.7931 18.0414 34.5207L17.7501 34.1144Z" fill="#EDD49E"/>
<path d="M34.3274 37.0031C34.3944 36.8823 34.3508 36.7302 34.23 36.6632C34.1093 36.5962 33.9571 36.6398 33.8901 36.7606L34.3274 37.0031ZM13.2407 38.9029C13.1207 38.8346 12.9681 38.8766 12.8999 38.9967C12.8316 39.1167 12.8736 39.2693 12.9936 39.3375L13.2407 38.9029ZM34.1088 36.8818C33.8901 36.7606 33.8902 36.7605 33.8902 36.7605C33.8902 36.7605 33.8902 36.7604 33.8902 36.7605C33.8902 36.7605 33.8901 36.7606 33.89 36.7608C33.8898 36.7611 33.8895 36.7618 33.8889 36.7627C33.8879 36.7646 33.8862 36.7676 33.8838 36.7717C33.8791 36.7799 33.8718 36.7926 33.8618 36.8095C33.8419 36.8433 33.8115 36.8937 33.7706 36.9587C33.6887 37.0886 33.5648 37.2764 33.3985 37.5048C33.0658 37.9617 32.5644 38.5792 31.8918 39.2188C30.5459 40.4986 28.5235 41.8585 25.8003 42.2087L25.864 42.7046C28.7237 42.3369 30.8396 40.9093 32.2363 39.5812C32.935 38.9168 33.4559 38.2753 33.8027 37.7991C33.9762 37.5609 34.1064 37.3637 34.1936 37.2252C34.2373 37.1559 34.2702 37.1013 34.2925 37.0636C34.3036 37.0447 34.3121 37.0301 34.3179 37.0199C34.3208 37.0148 34.323 37.0108 34.3246 37.008C34.3254 37.0066 34.326 37.0055 34.3265 37.0047C34.3267 37.0043 34.3269 37.0039 34.3271 37.0037C34.3271 37.0035 34.3272 37.0034 34.3273 37.0033C34.3273 37.0032 34.3274 37.0031 34.1088 36.8818ZM25.8003 42.2087C23.0708 42.5597 19.9392 41.7435 17.4683 40.8234C16.2372 40.3649 15.1789 39.884 14.4285 39.5178C14.0534 39.3348 13.7555 39.1805 13.5519 39.0723C13.4501 39.0181 13.3718 38.9755 13.3193 38.9466C13.293 38.9321 13.2731 38.921 13.2599 38.9137C13.2533 38.91 13.2484 38.9072 13.2452 38.9054C13.2436 38.9045 13.2424 38.9038 13.2417 38.9034C13.2413 38.9032 13.241 38.903 13.2409 38.903C13.2408 38.9029 13.2408 38.9029 13.2407 38.9029C13.2407 38.9029 13.2407 38.9029 13.1172 39.1202C12.9936 39.3375 12.9937 39.3376 12.9938 39.3376C12.9939 39.3377 12.994 39.3378 12.9941 39.3378C12.9944 39.338 12.9948 39.3382 12.9953 39.3385C12.9963 39.339 12.9977 39.3398 12.9995 39.3409C13.0032 39.343 13.0086 39.346 13.0157 39.35C13.0299 39.3579 13.0507 39.3695 13.078 39.3846C13.1327 39.4146 13.2131 39.4584 13.3172 39.5138C13.5254 39.6244 13.8284 39.7813 14.2092 39.9672C14.9705 40.3387 16.0441 40.8266 17.2939 41.292C19.7848 42.2196 23.0106 43.0716 25.864 42.7046L25.8003 42.2087Z" fill="#EDD49E"/>
<path d="M17.6594 25.0463C17.6594 25.0463 14.8973 30.7336 9.68 27.2479C4.46271 23.7621 1.72852 23.2117 1.72852 23.2117C1.72852 23.2117 3.82101 20.6573 6.84816 19.8952C9.8753 19.1332 13.586 19.5989 13.586 19.5989" stroke="#EDD49E" stroke-width="0.5" stroke-linecap="round" stroke-linejoin="round"/>
<path d="M8.64573 9.90964C8.51508 9.95429 8.44535 10.0964 8.48999 10.227C8.53463 10.3577 8.67674 10.4274 8.80739 10.3828L8.64573 9.90964ZM11.6199 7.66875L11.3833 7.58823L11.6199 7.66875ZM12.6163 2.96783C12.6277 2.83023 12.5253 2.70947 12.3877 2.69811C12.2501 2.68676 12.1294 2.7891 12.118 2.9267L12.6163 2.96783ZM8.72656 10.1462C8.80739 10.3828 8.80747 10.3828 8.80755 10.3827C8.80759 10.3827 8.80769 10.3827 8.80777 10.3827C8.80793 10.3826 8.80812 10.3825 8.80835 10.3825C8.80881 10.3823 8.80941 10.3821 8.81015 10.3818C8.81163 10.3813 8.81367 10.3806 8.81624 10.3797C8.82139 10.3779 8.8287 10.3753 8.83804 10.3719C8.85673 10.3651 8.88356 10.3552 8.91755 10.342C8.98551 10.3158 9.0822 10.2766 9.19959 10.2245C9.43398 10.1203 9.75292 9.9632 10.0912 9.75102C10.7595 9.33184 11.5422 8.67342 11.8566 7.74926L11.3833 7.58823C11.1246 8.34875 10.4606 8.92906 9.8255 9.32745C9.51206 9.52406 9.21511 9.67043 8.99654 9.76756C8.88745 9.81604 8.79839 9.85203 8.73721 9.87569C8.70664 9.88751 8.68306 9.89624 8.66748 9.9019C8.65969 9.90472 8.6539 9.90678 8.65023 9.90807C8.6484 9.90872 8.6471 9.90917 8.64634 9.90943C8.64596 9.90956 8.64572 9.90965 8.64562 9.90968C8.64557 9.9097 8.64555 9.9097 8.64557 9.9097C8.64558 9.9097 8.64562 9.90968 8.64563 9.90968C8.64567 9.90966 8.64573 9.90964 8.72656 10.1462ZM11.8566 7.74926C12.2425 6.61504 12.4972 4.41072 12.6163 2.96783L12.118 2.9267C11.9981 4.37965 11.746 6.52199 11.3833 7.58823L11.8566 7.74926Z" fill="#EDD49E"/>
<path d="M10.7521 14.7836C10.8813 14.735 10.9465 14.5907 10.8978 14.4615C10.8491 14.3323 10.7049 14.2671 10.5757 14.3158L10.7521 14.7836ZM5.62119 15.2002L5.6399 14.9509L5.62119 15.2002ZM2.28221 13.869C2.16295 13.7994 2.00987 13.8397 1.9403 13.959C1.87074 14.0783 1.91102 14.2313 2.03029 14.3009L2.28221 13.869ZM10.6639 14.5497C10.5757 14.3158 10.5758 14.3158 10.5758 14.3157C10.5758 14.3157 10.5759 14.3157 10.5759 14.3157C10.5759 14.3157 10.5758 14.3157 10.5758 14.3158C10.5756 14.3158 10.5754 14.3159 10.575 14.3161C10.5742 14.3164 10.5728 14.3169 10.5709 14.3176C10.5671 14.319 10.5612 14.3211 10.5531 14.324C10.537 14.3298 10.5125 14.3385 10.48 14.3495C10.415 14.3717 10.3182 14.4035 10.1929 14.4411C9.94232 14.5165 9.57851 14.6154 9.12926 14.708C8.22972 14.8934 6.99322 15.0525 5.6399 14.9509L5.60247 15.4495C7.01497 15.5555 8.29983 15.3894 9.23019 15.1977C9.69589 15.1017 10.0742 14.999 10.3369 14.92C10.4683 14.8804 10.571 14.8468 10.6413 14.8228C10.6765 14.8108 10.7036 14.8013 10.7222 14.7946C10.7315 14.7912 10.7387 14.7886 10.7437 14.7868C10.7462 14.7858 10.7481 14.7851 10.7495 14.7846C10.7502 14.7843 10.7508 14.7841 10.7512 14.784C10.7514 14.7839 10.7516 14.7838 10.7517 14.7838C10.7518 14.7837 10.7519 14.7837 10.7519 14.7837C10.752 14.7837 10.7521 14.7836 10.6639 14.5497ZM5.6399 14.9509C4.20708 14.8434 3.08764 14.3388 2.28221 13.869L2.03029 14.3009C2.87619 14.7943 4.06963 15.3345 5.60247 15.4495L5.6399 14.9509Z" fill="#EDD49E"/>
<path d="M57.5178 21.285C57.4258 19.974 56.7818 18.755 55.7238 17.996C54.6888 17.214 53.6768 16.984 52.7798 16.777C51.8598 16.547 51.0548 16.363 50.3648 15.65C49.6748 14.937 49.3068 14.155 49.3528 13.373C49.3758 12.66 49.6978 12.016 50.2958 11.464C51.6528 10.314 53.8378 10.337 55.1948 11.533C55.5628 11.855 55.8158 12.246 55.9768 12.66L57.0348 12.499C56.8278 11.855 56.4368 11.234 55.8848 10.751C55.0338 9.992 53.9068 9.578 52.7108 9.578C51.5608 9.578 50.5028 9.9 49.5368 10.728C48.7548 11.464 48.3408 12.361 48.2948 13.327C48.2488 14.408 48.7318 15.489 49.6058 16.386C50.5258 17.329 51.5608 17.559 52.5498 17.789C53.3778 17.996 54.2288 18.18 55.1028 18.824C55.9308 19.422 56.4138 20.319 56.4598 21.354C56.5288 22.412 56.1148 23.447 55.3328 24.229C53.9528 25.448 51.7218 25.471 50.2958 24.298C49.6978 23.792 49.3068 23.125 49.2148 22.412L48.1798 22.573C48.3178 23.539 48.8238 24.436 49.6058 25.103C50.4798 25.816 51.5838 26.207 52.7798 26.207H52.8948C54.0678 26.184 55.1488 25.77 55.9768 25.057L56.1148 24.919C57.0808 23.953 57.5868 22.642 57.5178 21.285ZM67.686 26.253C67.64 26.253 67.571 26.253 67.525 26.253H67.387C65.317 26.184 63.408 25.31 61.959 23.792C60.418 22.205 59.59 20.112 59.59 17.858C59.59 15.627 60.418 13.534 61.959 11.947C63.408 10.429 65.317 9.555 67.387 9.486H67.686C69.733 9.555 71.642 10.429 73.114 11.947C74.632 13.534 75.46 15.627 75.46 17.858C75.46 20.112 74.632 22.205 73.114 23.792C71.642 25.31 69.733 26.184 67.686 26.253ZM67.525 10.521C63.707 10.613 60.648 13.879 60.648 17.858C60.648 21.86 63.707 25.126 67.525 25.218C71.343 25.126 74.425 21.86 74.425 17.858C74.425 13.879 71.343 10.613 67.525 10.521ZM89.3069 9.877V26H88.5479L78.7959 12.062V26H77.7609V9.9H78.5659L88.2489 23.769V9.877H89.3069ZM104.971 17.904C104.971 15.765 104.143 13.718 102.625 12.2C101.084 10.682 99.0605 9.831 96.9215 9.831H92.0685V25.977H96.9215C99.0605 25.977 101.084 25.149 102.625 23.631C104.143 22.09 104.971 20.066 104.971 17.904ZM96.8985 24.942H93.1265V10.866H96.8985V10.889C100.785 10.889 103.936 14.04 103.936 17.904C103.936 21.791 100.785 24.942 96.8985 24.942ZM111.913 9.831L105.657 26H106.784L108.003 22.826C108.808 23.148 110.234 23.539 112.327 23.539C114.397 23.539 115.8 23.171 116.628 22.849L117.87 26H118.997L112.626 9.831H111.913ZM112.327 22.504C110.717 22.504 109.567 22.251 108.877 22.021C108.693 21.975 108.532 21.906 108.394 21.86L112.281 11.809L116.237 21.883C115.547 22.159 114.259 22.504 112.327 22.504ZM121.543 26H122.601V9.831H121.543V26Z" fill="#533100"/>
<path d="M57.3156 37.976C57.4476 37.976 57.5556 37.868 57.5556 37.736V29.132C57.5556 29 57.4476 28.892 57.3156 28.892C57.1836 28.892 57.0756 29 57.0756 29.132V36.956L51.6756 28.988C51.6396 28.94 51.5436 28.892 51.4716 28.892C51.3396 28.892 51.2316 29 51.2316 29.132V37.736C51.2316 37.868 51.3396 37.976 51.4716 37.976C51.6036 37.976 51.7116 37.868 51.7116 37.736V29.912L57.1236 37.88C57.1596 37.94 57.2436 37.976 57.3156 37.976ZM65.7781 37.652L62.3821 29.024C62.3461 28.94 62.2501 28.868 62.1541 28.868C62.0701 28.868 61.9741 28.94 61.9381 29.024L58.5421 37.652C58.5301 37.676 58.5181 37.724 58.5181 37.748C58.5181 37.88 58.6261 37.988 58.7581 37.988C58.8541 37.988 58.9501 37.916 58.9861 37.832L62.1541 29.768L63.7741 33.872H62.2381C62.1061 33.872 61.9981 33.98 61.9981 34.112C61.9981 34.244 62.1061 34.352 62.2381 34.352H63.9661L65.3341 37.832C65.3701 37.916 65.4661 37.976 65.5621 37.976C65.6941 37.976 65.8021 37.868 65.8021 37.736C65.8021 37.712 65.7901 37.676 65.7781 37.652ZM75.4314 37.988H75.4434C76.0194 37.988 76.9194 37.772 77.4474 37.52C77.9514 37.268 78.6474 36.704 78.9954 36.26C79.0194 36.224 79.0434 36.164 79.0434 36.116C79.0434 35.984 78.9354 35.876 78.8034 35.876C78.7434 35.876 78.6594 35.912 78.6234 35.972C77.8434 36.944 76.6794 37.508 75.4314 37.508C73.1874 37.508 71.3634 35.672 71.3634 33.428C71.3634 31.184 73.1874 29.36 75.4314 29.36C76.6794 29.36 77.8434 29.924 78.6234 30.908C78.6594 30.956 78.7434 30.992 78.8034 30.992C78.9354 30.992 79.0434 30.884 79.0434 30.752C79.0434 30.704 79.0194 30.644 78.9954 30.608C78.6474 30.164 77.9514 29.6 77.4474 29.348C76.9194 29.096 76.0194 28.88 75.4314 28.88C74.9274 28.88 74.1234 29.048 73.6554 29.24C72.1314 29.888 70.8834 31.772 70.8834 33.428C70.8834 35.948 72.9234 37.988 75.4314 37.988ZM84.6761 37.94C85.1801 37.94 85.9601 37.784 86.4281 37.58C87.9401 36.944 89.1761 35.084 89.1761 33.44C89.1761 30.944 87.1601 28.928 84.6761 28.928C84.1721 28.928 83.3801 29.084 82.9121 29.288C81.4001 29.924 80.1641 31.784 80.1641 33.428C80.1641 35.924 82.1801 37.94 84.6761 37.94ZM84.6761 29.408C86.8961 29.408 88.6961 31.208 88.6961 33.428C88.6961 35.648 86.8961 37.46 84.6761 37.46C82.4561 37.46 80.6441 35.648 80.6441 33.428C80.6441 31.208 82.4561 29.408 84.6761 29.408ZM96.1189 37.952C96.2509 37.952 96.3589 37.844 96.3589 37.712C96.3589 37.58 96.2509 37.472 96.1189 37.472H90.6589L96.3229 29.3C96.3469 29.264 96.3589 29.204 96.3589 29.156C96.3589 29.024 96.2509 28.928 96.1189 28.916H90.2029C90.0709 28.916 89.9629 29.024 89.9629 29.156C89.9629 29.3 90.0709 29.396 90.2029 29.396H95.6629L90.0109 37.568C89.9869 37.604 89.9629 37.664 89.9629 37.712C89.9629 37.844 90.0709 37.952 90.2029 37.952H96.1189ZM97.9948 38.036C98.1268 38.036 98.2348 37.928 98.2348 37.796V29.144C98.2348 29.012 98.1268 28.904 97.9948 28.904C97.8628 28.904 97.7548 29.012 97.7548 29.144V37.796C97.7548 37.928 97.8628 38.036 97.9948 38.036ZM105.714 37.976C105.846 37.976 105.954 37.868 105.954 37.736V29.132C105.954 29 105.846 28.892 105.714 28.892C105.582 28.892 105.474 29 105.474 29.132V36.956L100.074 28.988C100.038 28.94 99.942 28.892 99.87 28.892C99.738 28.892 99.63 29 99.63 29.132V37.736C99.63 37.868 99.738 37.976 99.87 37.976C100.002 37.976 100.11 37.868 100.11 37.736V29.912L105.522 37.88C105.558 37.94 105.642 37.976 105.714 37.976ZM113.025 28.856C112.893 28.856 112.785 28.964 112.785 29.096V34.604H107.493V29.108C107.493 28.976 107.385 28.868 107.253 28.868C107.121 28.868 107.013 28.976 107.013 29.108V37.76C107.013 37.892 107.121 38 107.253 38C107.385 38 107.493 37.892 107.493 37.76V35.084H112.785V37.76C112.785 37.892 112.893 38 113.025 38C113.157 38 113.265 37.892 113.265 37.76V29.096C113.265 28.964 113.157 28.856 113.025 28.856ZM121.759 37.652L118.363 29.024C118.327 28.94 118.231 28.868 118.135 28.868C118.051 28.868 117.955 28.94 117.919 29.024L114.523 37.652C114.511 37.676 114.499 37.724 114.499 37.748C114.499 37.88 114.607 37.988 114.739 37.988C114.835 37.988 114.931 37.916 114.967 37.832L118.135 29.768L119.755 33.872H118.219C118.087 33.872 117.979 33.98 117.979 34.112C117.979 34.244 118.087 34.352 118.219 34.352H119.947L121.315 37.832C121.351 37.916 121.447 37.976 121.543 37.976C121.675 37.976 121.783 37.868 121.783 37.736C121.783 37.712 121.771 37.676 121.759 37.652Z" fill="#533100"/>
</svg>
